# xmcd
#
# Track frame offsets:
#	150
#	12587
#	24292
#	36797
#	55585
#	72887
#	86237
#	97355
#	117710
#	132585
#	148560
#	162027
#	180085
#	196080
#	212575
#	224307
#
# Disc length: 3147 seconds
#
# Revision: 3
# Processed by: cddbd v1.5.2PL0 Copyright (c) Steve Scherf et al.
# Submitted via: audiograbber 1.83.01
#
DISCID=e30c4910
DTITLE=MN1093 Monster Hits - 70's and 80's Female Country (MH)
DYEAR=2008
DGENRE=karaoke
TTITLE0=Tammy Wynette - He Loves Me All The Way (MH) 
TTITLE1=Lynn Anderson - Listen To A Country Song (MH)
TTITLE2=Loretta Lynn - One's On The Way (MH)
TTITLE3=K. T. Oslin - Do Ya (MH)
TTITLE4=Crystal Gayle - I'll Get Over You (MH)
TTITLE5=Anne Murray - He Thinks I Still Care (MH)
TTITLE6=Dolly Parton - Love Is Like A Butterfly (MH)
TTITLE7=Juice Newton - You Make Me Want To Make You Mine (MH)
TTITLE8=Forester Sisters - I Fell In Love Again Last Night (MH)
TTITLE9=Cristy Lane - One Day At A Time (MH)
TTITLE10=Emmylou Harris - Sweet Dreams (MH)
TTITLE11=Barbara Mandrell - Years (MH)
TTITLE12=Rosanne Cash - Never Be You (MH)
TTITLE13=Dottie West - Are You Happy Baby (MH)
TTITLE14=Reba McEntire - Can't Even Get The Blues (MH)
TTITLE15=Janie Fricke - Don't Worry 'Bout Me Baby (MH)
EXTD=
EXTT0=
EXTT1=
EXTT2=
EXTT3=
EXTT4=
EXTT5=
EXTT6=
EXTT7=
EXTT8=
EXTT9=
EXTT10=
EXTT11=
EXTT12=
EXTT13=
EXTT14=
EXTT15=
PLAYORDER=
